<?xml version="1.0" encoding="UTF-8" standalone="no"?><!DOCTYPE svg PUBLIC "-//W3C//DTD SVG 1.1//EN" "http://www.w3.org/Graphics/SVG/1.1/DTD/svg11.dtd"><svg width="100%" height="100%" viewBox="0 0 512 512" version="1.1" xmlns="http://www.w3.org/2000/svg" xmlns:xlink="http://www.w3.org/1999/xlink" xml:space="preserve" xmlns:serif="http://www.serif.com/" style="fill-rule:evenodd;clip-rule:evenodd;stroke-linejoin:round;stroke-miterlimit:1.41421;"><path d="M502.341,278.804l-223.543,223.538c-12.868,12.877 -33.748,12.877 -46.633,0l-46.415,-46.424l58.88,-58.884c13.687,4.621 29.38,1.52 40.284,-9.387c10.97,-10.975 14.043,-26.803 9.305,-40.537l56.754,-56.749c13.733,4.734 29.568,1.674 40.538,-9.311c15.323,-15.319 15.323,-40.152 0,-55.484c-15.334,-15.332 -40.162,-15.332 -55.503,0c-11.524,11.536 -14.375,28.472 -8.531,42.672l-52.934,52.931l0,-139.285c3.732,-1.85 7.258,-4.314 10.371,-7.418c15.323,-15.321 15.323,-40.152 0,-55.497c-15.323,-15.316 -40.169,-15.316 -55.48,0c-15.323,15.345 -15.323,40.176 0,55.497c3.787,3.783 8.173,6.645 12.852,8.561l0,140.573c-4.679,1.916 -9.054,4.753 -12.852,8.563c-11.606,11.601 -14.398,28.637 -8.445,42.892l-58.049,58.058l-153.284,-153.274c-12.875,-12.887 -12.875,-33.768 0,-46.644l223.554,-223.539c12.87,-12.875 33.743,-12.875 46.633,0l222.498,222.503c12.879,12.879 12.879,33.77 0,46.645" style="fill:#ff9a1e;fill-rule:nonzero;"/></svg>