<?xml version="1.0" encoding="UTF-8" standalone="no"?>
<svg
   version="1.1"
   viewBox="0 0 24 24"
   id="svg19"
   sodipodi:docname="2_javascript_icon.svg"
   inkscape:version="1.1.1 (3bf5ae0d25, 2021-09-20)"
   xmlns:inkscape="http://www.inkscape.org/namespaces/inkscape"
   xmlns:sodipodi="http://sodipodi.sourceforge.net/DTD/sodipodi-0.dtd"
   xmlns="http://www.w3.org/2000/svg"
   xmlns:svg="http://www.w3.org/2000/svg">
  <defs
     id="defs23" />
  <sodipodi:namedview
     id="namedview21"
     pagecolor="#ffffff"
     bordercolor="#666666"
     borderopacity="1.0"
     inkscape:pageshadow="2"
     inkscape:pageopacity="0.0"
     inkscape:pagecheckerboard="0"
     showgrid="false"
     inkscape:zoom="128"
     inkscape:cx="2.9609375"
     inkscape:cy="0.8984375"
     inkscape:window-width="1807"
     inkscape:window-height="1060"
     inkscape:window-x="109"
     inkscape:window-y="-4"
     inkscape:window-maximized="1"
     inkscape:current-layer="svg19"
     showguides="true"
     inkscape:guide-bbox="true">
    <sodipodi:guide
       position="0.796875,24.902344"
       orientation="1,0"
       id="guide306" />
    <sodipodi:guide
       position="-2.1328125,23.199219"
       orientation="0,-1"
       id="guide308" />
    <sodipodi:guide
       position="24,25.308594"
       orientation="1,0"
       id="guide319" />
    <sodipodi:guide
       position="23.199219,25.234375"
       orientation="1,0"
       id="guide321" />
    <sodipodi:guide
       position="24.28125,-0.0078124873"
       orientation="0,-1"
       id="guide323" />
    <sodipodi:guide
       position="24.859375,0.80468751"
       orientation="0,-1"
       id="guide325" />
  </sodipodi:namedview>
  <g
     transform="matrix(0.04381636,0,0,0.04372918,7.3726434,2.6808487)"
     id="g121"
     style="clip-rule:evenodd;fill-rule:evenodd;stroke-linejoin:round;stroke-miterlimit:1.41421">
    <path
       d="m 361.93819,7.4560805 c 0,-27.8850005 -22.595,-50.5250005 -50.425,-50.5250005 H -99.636814 c -27.829996,0 -50.424996,22.64 -50.424996,50.5250005 V 418.40608 c 0,27.885 22.595,50.525 50.424996,50.525 H 311.51319 c 27.83,0 50.425,-22.64 50.425,-50.525 z"
       style="fill:#ffed00"
       id="path119" />
  </g>
  <g
     transform="matrix(0.03674591,0,0,0.03674591,6.660733,1.9972712)"
     id="g125"
     style="clip-rule:evenodd;fill-rule:evenodd;stroke-linejoin:round;stroke-miterlimit:1.41421">
    <path
       d="m 243.45344,440.2061 c 12.67235,20.69118 29.15938,35.89999 58.31876,35.89999 24.49588,0 40.14408,-12.24294 40.14408,-29.15938 0,-20.27176 -16.0776,-27.45176 -43.04004,-39.24533 l -14.77942,-6.34117 c -42.66057,-18.17468 -71.00109,-40.94296 -71.00109,-89.07592 0,-44.33823 33.78294,-78.09122 86.57939,-78.09122 37.58764,0 64.61,13.08178 84.08288,47.33407 l -46.03588,29.55882 c -10.13588,-18.17468 -21.07064,-25.33471 -38.047,-25.33471 -17.31588,0 -28.29059,10.9847 -28.29059,25.33471 0,17.7353 10.9847,24.9153 36.34937,35.89999 l 14.77941,6.33119 c 50.23003,21.53999 78.59053,43.4994 78.59053,92.87063 0,53.22586 -41.81176,82.38524 -97.96354,82.38524 -54.90352,0 -90.37411,-26.16356 -107.72994,-60.45579 z m -208.839095,5.12287 c 9.287063,16.47704 17.735295,30.40764 38.047001,30.40764 19.422945,0 31.675874,-7.59942 31.675874,-37.14826 V 237.56837 h 59.11766 v 201.81887 c 0,61.21473 -35.89001,89.07592 -88.277039,89.07592 -47.334065,0 -74.74588122,-24.49588 -88.686462,-53.99978 z"
       style="fill-rule:nonzero;stroke-width:0.998609"
       id="path123" />
  </g>
</svg>
