<?xml version="1.0" encoding="UTF-8" standalone="no"?>
<svg
   version="1.1"
   viewBox="0 0 24 24"
   id="svg19"
   sodipodi:docname="3_typescript_icon.svg"
   inkscape:version="1.1.1 (3bf5ae0d25, 2021-09-20)"
   xmlns:inkscape="http://www.inkscape.org/namespaces/inkscape"
   xmlns:sodipodi="http://sodipodi.sourceforge.net/DTD/sodipodi-0.dtd"
   xmlns="http://www.w3.org/2000/svg"
   xmlns:svg="http://www.w3.org/2000/svg">
  <defs
     id="defs23" />
  <sodipodi:namedview
     id="namedview21"
     pagecolor="#ffffff"
     bordercolor="#666666"
     borderopacity="1.0"
     inkscape:pageshadow="2"
     inkscape:pageopacity="0.0"
     inkscape:pagecheckerboard="0"
     showgrid="false"
     inkscape:zoom="32"
     inkscape:cx="17.53125"
     inkscape:cy="6.59375"
     inkscape:window-width="1807"
     inkscape:window-height="1060"
     inkscape:window-x="109"
     inkscape:window-y="-4"
     inkscape:window-maximized="1"
     inkscape:current-layer="svg19"
     showguides="true"
     inkscape:guide-bbox="true">
    <sodipodi:guide
       position="0.796875,24.902344"
       orientation="1,0"
       id="guide306" />
    <sodipodi:guide
       position="-2.1328125,23.199219"
       orientation="0,-1"
       id="guide308" />
    <sodipodi:guide
       position="24,25.308594"
       orientation="1,0"
       id="guide319" />
    <sodipodi:guide
       position="23.199219,25.234375"
       orientation="1,0"
       id="guide321" />
    <sodipodi:guide
       position="24.28125,-0.0078124873"
       orientation="0,-1"
       id="guide323" />
    <sodipodi:guide
       position="24.859375,0.80468751"
       orientation="0,-1"
       id="guide325" />
  </sodipodi:namedview>
  <g
     transform="matrix(0.03674591,0,0,0.03674591,6.660733,1.9972712)"
     id="g125"
     style="clip-rule:evenodd;fill-rule:evenodd;stroke-linejoin:round;stroke-miterlimit:1.41421" />
  <rect
     width="22.394531"
     height="22.394531"
     rx="2.1869662"
     fill="#3178c6"
     id="rect296"
     x="0.796875"
     y="0.80078101"
     style="stroke-width:0.0437394" />
  <path
     d="m 14.662239,18.602683 v 2.186967 c 0.354289,0.183705 0.787308,0.319297 1.268442,0.411149 0.481132,0.09185 1.006004,0.135593 1.530875,0.135593 0.524871,0 1.006004,-0.04811 1.487138,-0.148715 0.481131,-0.100599 0.874785,-0.26681 1.2247,-0.481131 0.354287,-0.231819 0.656089,-0.524873 0.831046,-0.918527 0.174958,-0.393653 0.310549,-0.831046 0.310549,-1.399658 0,-0.398027 -0.06124,-0.743567 -0.179331,-1.049744 -0.118096,-0.306175 -0.28868,-0.568611 -0.524872,-0.787307 -0.223069,-0.231819 -0.481131,-0.437393 -0.787305,-0.612351 -0.306177,-0.174957 -0.656091,-0.358662 -1.049744,-0.524871 -0.288681,-0.118097 -0.524873,-0.231819 -0.787308,-0.345541 -0.227445,-0.113722 -0.424272,-0.227445 -0.568613,-0.341167 -0.161834,-0.118096 -0.284304,-0.240567 -0.371783,-0.367411 -0.08748,-0.131217 -0.131218,-0.275556 -0.131218,-0.437393 0,-0.148713 0.03893,-0.284305 0.118096,-0.406776 0.07917,-0.122469 0.18808,-0.22307 0.328046,-0.310548 0.139966,-0.08748 0.314922,-0.153087 0.524871,-0.201201 0.205574,-0.04811 0.433019,-0.06998 0.699829,-0.06998 0.183706,0 0.376158,0.01356 0.568611,0.04111 0.201201,0.02756 0.406775,0.06998 0.612351,0.126844 0.205575,0.05686 0.406776,0.126844 0.612351,0.214323 0.192452,0.08748 0.371783,0.188078 0.524871,0.3018 v -2.055747 c -0.332419,-0.126844 -0.69983,-0.223071 -1.093482,-0.284306 -0.393654,-0.06123 -0.831048,-0.09185 -1.35592,-0.09185 -0.524872,0 -1.006005,0.05686 -1.487136,0.166209 -0.481133,0.109348 -0.874787,0.284306 -1.224702,0.524873 -0.35429,0.236192 -0.612351,0.524871 -0.831047,0.918525 -0.205575,0.36741 -0.306176,0.787308 -0.306176,1.312179 0,0.65609 0.188079,1.224702 0.568612,1.662093 0.376158,0.481134 0.962265,0.831048 1.705834,1.180963 0.301801,0.122469 0.56861,0.244941 0.831048,0.363036 0.262435,0.118097 0.481131,0.240567 0.656089,0.367411 0.188078,0.126844 0.336793,0.26681 0.437392,0.415523 0.10935,0.148714 0.166211,0.323671 0.166211,0.524872 0,0.139966 -0.03412,0.271183 -0.100601,0.393654 -0.06649,0.12247 -0.170584,0.227444 -0.310549,0.314923 -0.139966,0.08748 -0.31055,0.157462 -0.524873,0.209949 -0.205574,0.04811 -0.437392,0.07436 -0.743567,0.07436 -0.481133,0 -0.962266,-0.0831 -1.399658,-0.249314 -0.481134,-0.166211 -0.918528,-0.415524 -1.312182,-0.743569 z m -3.674102,-5.379936 h 2.799316 V 11.429436 H 5.9581144 v 1.793311 h 2.7993165 v 8.004297 h 2.2307061 z"
     clip-rule="evenodd"
     fill="#fff"
     fill-rule="evenodd"
     style="fill:#ffffff;stroke-width:0.0437394"
     id="path298" />
</svg>
